<svg id="Capa_1" enable-background="new 0 0 512 512" height="512" viewBox="0 0 512 512" width="512" xmlns="http://www.w3.org/2000/svg"><g><g><g><path d="m153.468 301.482c-59.168 0-107.133 47.001-107.133 106.169v104.349h62.342l17.617-10.637 13.021 10.637h117.156l36.693-66.127-36.693-144.391z" fill="#4dffc3"/><path d="m358.532 301.482h-102.061v210.518h117.036l18.714-12.315 11.923 12.315h61.521v-104.349c0-59.168-47.965-106.169-107.133-106.169z" fill="#2ee6a8"/></g><g><g><path d="m108.678 450.278h30.637v61.722h-30.637z" fill="#adffe4"/></g><path d="m391.214 376.922h-28.556v-28.557h-30.637v28.557h-28.557v30.637h28.557v28.557h30.637v-28.557h28.556z" fill="#fff5f5"/><g><path d="m373.507 450.278h30.637v61.722h-30.637z" fill="#29cc95"/></g></g></g><g><path d="m204.759 301.482 51.652 72.614 25.826-72.614-25.826-86.44h-51.652z" fill="#ffccc2"/><path d="m308.063 301.482v-86.44h-51.652v159.054z" fill="#f7b9b1"/></g><g><g><path d="m146.765 104c-.148 2.345-.233 4.708-.233 7.09v50.878c0 60.847 49.175 110.416 109.87 111.073l39.759-89.908-39.759-99.589c-44.32 12.27-109.637 20.456-109.637 20.456z" fill="#ffdbd4"/></g></g><path d="m368.478 104s-71.594-18.68-72.099-41.91c-.171 7.854-17.338 15.187-39.977 21.455v189.497c.407.004.812.016 1.22.016 61.255 0 111.089-49.834 111.089-111.089v-50.878c0-2.384-.084-4.746-.233-7.091z" fill="#ffccc2"/><g><path d="m146.765 104h106.781c.961 0 1.911-.043 2.856-.105l39.759-51.887-39.759-51.993c-58.318.631-105.993 46.423-109.637 103.985z" fill="#404a4a"/></g><path d="m257.622 0c-.408 0-.813.01-1.22.015v103.879c22.023-1.451 39.492-19.53 39.977-41.805-.007-.316-.024-.629-.024-.947v-.425.425c0 .318.017.631.024.947.007-.316.024-.629.024-.947v-.425.425c0 .318-.017.631-.024.947.506 23.231 19.482 41.911 42.834 41.911h29.266c-3.67-57.964-51.984-104-110.857-104z" fill="#2d2d2d"/></g></svg>